# xmcd
# 
# Track frame offsets:
#     150
#     7475
#     38222
#     54792
#     70252
#     75272
#     88757
#     101117
#     117730
#     130060
#     137467
#     148530
#     180547
#     206027
#     229657
#     260077
# 
# Disc length: 4440
# 
# Revision: 0
# Processed by: cddbd v1.5.2PL0 Copyright (c) Steve Scherf et al.
# Submitted via: fre:ac v1.0.31
# 
DISCID=e3115610
DTITLE=Gonzalo Rubalcaba - Solo
DYEAR=2006
DGENRE=Jazz
TTITLE0=Rezo
TTITLE1=Quasar
TTITLE2=Silencio
TTITLE3=Paseo Iluminado (Improv #1)
TTITLE4=Canción para Dormir en el Sillón
TTITLE5=Paseo en Media Luz (Improv #2)
TTITLE6=Canción de Cuna del Niño Negro
TTITLE7=Faro
TTITLE8=Paseo Azul (Improv #3)
TTITLE9=Sueño de Muñecas
TTITLE10=Paseo Morado (Improv #4)
TTITLE11=Prologo (Prologue to a Fantasy)
TTITLE12=Here's That Rainy Day
TTITLE13=Nightfall
TTITLE14=Bésame Mucho
TTITLE15=Data track
EXTD=
EXTT0=
EXTT1=
EXTT2=
EXTT3=
EXTT4=
EXTT5=
EXTT6=
EXTT7=
EXTT8=
EXTT9=
EXTT10=
EXTT11=
EXTT12=
EXTT13=
EXTT14=
EXTT15=
PLAYORDER=
